<svg width="595" height="842" viewBox="0 0 595 842" fill="none" xmlns="http://www.w3.org/2000/svg">
<rect width="595" height="842" fill="#E5E5E5"/>
<g clip-path="url(#clip0)">
<rect width="595" height="842" fill="white"/>
<path fill-rule="evenodd" clip-rule="evenodd" d="M73.1111 842L146.222 821.652C219.333 802.005 365.556 762.01 463.037 722.015C560.519 681.318 609.259 641.323 584.889 601.328C560.519 561.333 463.037 521.338 389.926 481.343C316.815 441.348 268.074 400.652 231.519 360.657C194.963 320.662 170.593 280.667 207.148 240.672C243.704 200.677 341.185 160.682 316.815 119.985C292.444 79.99 146.222 39.995 73.1111 20.3483L0 1.62125e-05H658V20.3483C658 39.995 658 79.99 658 119.985C658 160.682 658 200.677 658 240.672C658 280.667 658 320.662 658 360.657C658 400.652 658 441.348 658 481.343C658 521.338 658 561.333 658 601.328C658 641.323 658 681.318 658 722.015C658 762.01 658 802.005 658 821.652V842H73.1111Z" fill="#E12454"/>
</g>
<defs>
<clipPath id="clip0">
<rect width="595" height="842" fill="white"/>
</clipPath>
</defs>
</svg>
