<svg width="595" height="842" viewBox="0 0 595 842" fill="none" xmlns="http://www.w3.org/2000/svg">
<rect width="595" height="842" fill="#E5E5E5"/>
<g clip-path="url(#clip0)">
<rect width="595" height="842" fill="white"/>
<path fill-rule="evenodd" clip-rule="evenodd" d="M-756 71.9376L-689.8 187.78C-623.6 303.622 -491.2 535.306 -358.8 488.969C-226.4 442.632 -94 118.274 38.4 71.9376C170.8 25.6008 303.2 257.285 435.6 257.285C568 257.285 700.4 25.6008 832.8 -20.736C965.2 -67.0728 1097.6 71.9376 1163.8 141.443L1230 210.948V906H1163.8C1097.6 906 965.2 906 832.8 906C700.4 906 568 906 435.6 906C303.2 906 170.8 906 38.4 906C-94 906 -226.4 906 -358.8 906C-491.2 906 -623.6 906 -689.8 906H-756V71.9376Z" fill="#FF725E"/>
</g>
<defs>
<clipPath id="clip0">
<rect width="595" height="842" fill="white"/>
</clipPath>
</defs>
</svg>
